<svg id="SvgjsSvg1026" width="288" height="288" xmlns="http://www.w3.org/2000/svg" version="1.1" xmlns:xlink="http://www.w3.org/1999/xlink" xmlns:svgjs="http://svgjs.com/svgjs"><defs id="SvgjsDefs1027"></defs><g id="SvgjsG1028"><svg xmlns="http://www.w3.org/2000/svg" width="288" height="288" enable-background="new 0 0 424.872 424.872" viewBox="0 0 424.872 424.872"><path fill="#ff922b" d="M374.827,277.587L213.056,115.816l-7.934-7.934l-96.167-96.167c-15.62-15.62-40.947-15.621-56.568,0    s-15.621,40.948,0,56.568c9.224,9.224,21.818,12.854,33.814,11.186l73.667,73.666l-79.402,79.402    c19.799,33.943,57.908,80.124,90.716,112.932c32.808,32.806,67.675,59.603,101.617,79.402l102.03-102.03    C387.325,310.346,387.325,290.086,374.827,277.587z M97.514,68.157l-5.631-5.631l-7.888,1.097    c-7.611,1.059-15.008-1.366-20.295-6.652c-9.358-9.358-9.358-24.584,0-33.942s24.584-9.358,33.942,0l96.167,96.166l-22.628,22.628    L97.514,68.157z M363.514,311.529l-93.17,93.17c-30.225-18.879-60.39-43.083-87.85-70.542    c-30.502-30.503-62.617-69.622-81.774-99.246l12.789-12.789c23.01,34.526,56.297,73.206,82.054,98.964    c22.962,22.962,47.834,43.742,73.926,61.839l8.862-8.86c-24.96-17.504-52.59-39.752-74.302-61.464    c-25.846-25.846-59.371-64.85-81.886-99.133l82.958-82.958l158.392,158.393C369.752,295.14,369.752,305.29,363.514,311.529z" class="active-path colorBDA881 svgShape" data-old_color="#000000" data-original="#000000"></path><circle cx="329.555" cy="300.212" r="16" fill="#ffa652" class="active-path colorBDA881 svgShape" data-old_color="#000000" data-original="#000000"></circle></svg></g></svg>